<svg width="32" height="32" viewBox="0 0 32 32" fill="none" xmlns="http://www.w3.org/2000/svg">
<path d="M5 5C3.35547 5 2 6.35547 2 8V13.5C2 14.0234 2.14844 14.418 2.25 14.7188L2.3125 14.8438L3.46875 17.2812C3.48047 17.3086 3.51953 17.3164 3.53125 17.3438C4.01953 18.3828 5.08203 19 6.1875 19H9V17H6.1875C5.72266 17 5.44531 16.8086 5.3125 16.5V16.4688L4.59375 15H27.4062L26.6875 16.4688V16.5C26.5547 16.8086 26.2773 17 25.8125 17H23V19H25.8125C26.918 19 27.9805 18.3828 28.4688 17.3438H28.5C28.5117 17.3242 28.5234 17.3047 28.5312 17.2812L29.6875 14.8438L29.75 14.7188C29.8516 14.418 30 14.0234 30 13.5V8C30 6.35547 28.6445 5 27 5H5ZM5 7H27C27.5547 7 28 7.44531 28 8V13H4V8C4 7.44531 4.44531 7 5 7ZM12 17C11.4492 17 11 17.4492 11 18C11 18.5508 11.4492 19 12 19C12.5508 19 13 18.5508 13 18C13 17.4492 12.5508 17 12 17ZM16 17C15.4492 17 15 17.4492 15 18C15 18.5508 15.4492 19 16 19C16.5508 19 17 18.5508 17 18C17 17.4492 16.5508 17 16 17ZM20 17C19.4492 17 19 17.4492 19 18C19 18.5508 19.4492 19 20 19C20.5508 19 21 18.5508 21 18C21 17.4492 20.5508 17 20 17ZM11 20C10.4492 20 10 20.4492 10 21C10 21.5508 10.4492 22 11 22C11.5508 22 12 21.5508 12 21C12 20.4492 11.5508 20 11 20ZM16 20C15.4492 20 15 20.4492 15 21C15 21.5508 15.4492 22 16 22C16.5508 22 17 21.5508 17 21C17 20.4492 16.5508 20 16 20ZM21 20C20.4492 20 20 20.4492 20 21C20 21.5508 20.4492 22 21 22C21.5508 22 22 21.5508 22 21C22 20.4492 21.5508 20 21 20ZM10 23C9.44922 23 9 23.4492 9 24C9 24.5508 9.44922 25 10 25C10.5508 25 11 24.5508 11 24C11 23.4492 10.5508 23 10 23ZM16 23C15.4492 23 15 23.4492 15 24C15 24.5508 15.4492 25 16 25C16.5508 25 17 24.5508 17 24C17 23.4492 16.5508 23 16 23ZM22 23C21.4492 23 21 23.4492 21 24C21 24.5508 21.4492 25 22 25C22.5508 25 23 24.5508 23 24C23 23.4492 22.5508 23 22 23ZM8 26C7.44922 26 7 26.4492 7 27C7 27.5508 7.44922 28 8 28C8.55078 28 9 27.5508 9 27C9 26.4492 8.55078 26 8 26ZM16 26C15.4492 26 15 26.4492 15 27C15 27.5508 15.4492 28 16 28C16.5508 28 17 27.5508 17 27C17 26.4492 16.5508 26 16 26ZM24 26C23.4492 26 23 26.4492 23 27C23 27.5508 23.4492 28 24 28C24.5508 28 25 27.5508 25 27C25 26.4492 24.5508 26 24 26Z" fill="black"/>
</svg>
