<svg width="1128" height="350" viewBox="0 0 1128 350" fill="none" xmlns="http://www.w3.org/2000/svg">
<path fill-rule="evenodd" clip-rule="evenodd" d="M273.289 306.309H276.371V345.251H354.352V165.265H174.924V234.362H237.499V236.737L232.521 242.198C229.519 245.997 223.119 249.796 213.322 253.596C203.525 257.395 192.148 259.294 179.191 259.294C134.156 259.294 111.639 231.196 111.639 175C111.639 118.962 134.156 90.943 179.191 90.943C189.304 90.943 198.469 92.2886 206.685 94.9796C214.902 97.6707 221.223 100.995 225.647 104.953C229.44 108.435 232.837 112.472 235.839 117.062C239.474 123.078 241.291 127.827 241.291 131.309H352.93L352.456 123.948C352.298 123.474 351.902 121.811 351.27 118.962C350.638 115.954 350.085 113.738 349.611 112.313C349.295 110.889 348.663 108.593 347.715 105.427C346.925 102.103 346.056 99.3329 345.108 97.1167C344.318 94.9005 343.291 92.1303 342.026 88.806C340.762 85.3234 339.34 82.2365 337.76 79.5455C336.338 76.6961 334.679 73.6884 332.783 70.5224C330.886 67.1981 328.674 63.953 326.146 60.787C323.776 57.621 321.247 54.5341 318.561 51.5265C309.712 42.1868 299.441 33.6386 287.748 25.882C275.423 17.967 259.779 11.7142 240.817 7.12347C221.855 2.37449 201.313 0 179.191 0C123.727 0 79.9563 15.355 47.879 46.0651C15.9597 76.9335 0 120.07 0 175.475C0 230.88 15.2486 273.779 45.7457 304.172C76.2429 334.724 119.144 350 174.45 350C186.775 350 198.706 348.575 210.241 345.726C221.934 342.877 231.573 339.315 239.158 335.041C246.585 330.767 253.063 326.255 258.594 321.506C266.969 314.699 271.867 309.634 273.289 306.309ZM238.661 334.173C246.042 329.925 252.467 325.449 257.942 320.747L257.953 320.739L257.963 320.73C262.134 317.34 265.419 314.4 267.83 311.907C270.259 309.394 271.733 307.404 272.37 305.916L272.629 305.309H277.371V344.251H353.352V166.265H175.924V233.362H238.499V237.124L233.283 242.846C230.092 246.864 223.472 250.732 213.684 254.528C203.748 258.381 192.244 260.294 179.191 260.294C156.453 260.294 139.241 253.19 127.746 238.846C116.285 224.544 110.639 203.205 110.639 175C110.639 146.873 116.285 125.593 127.747 111.331C139.243 97.0267 156.454 89.943 179.191 89.943C189.392 89.943 198.664 91.3003 206.997 94.0293C215.29 96.7454 221.751 100.125 226.314 104.207L226.324 104.216C230.181 107.758 233.632 111.859 236.676 116.515L236.686 116.53L236.695 116.545C240.032 122.067 241.944 126.677 242.248 130.309H351.863L351.465 124.132C351.269 123.477 350.875 121.798 350.294 119.179L350.292 119.168C349.661 116.167 349.118 113.997 348.662 112.629L348.646 112.58L348.635 112.53C348.327 111.144 347.705 108.879 346.757 105.714L346.749 105.687L346.742 105.659C345.96 102.369 345.107 99.6572 344.188 97.51L344.176 97.4816L344.166 97.4525C343.379 95.2453 342.355 92.4821 341.092 89.1614L341.089 89.1543L341.086 89.1472C339.839 85.7116 338.442 82.6817 336.898 80.0518L336.88 80.0225L336.865 79.992C335.456 77.1688 333.81 74.1836 331.925 71.0362L331.919 71.0271L331.914 71.0179C330.045 67.7412 327.862 64.5388 325.364 61.411L325.355 61.3988L325.345 61.3863C322.996 58.2478 320.489 55.1869 317.825 52.2039C309.036 42.9294 298.83 34.4337 287.201 26.719C274.995 18.8825 259.466 12.6672 240.582 8.0954L240.574 8.09354C221.701 3.36684 201.242 1 179.191 1C123.918 1 80.4202 16.2965 48.5727 46.7853C16.8951 77.4208 1 120.271 1 175.475C1 230.694 16.1926 273.308 46.4516 303.464L46.4535 303.466C76.7142 333.781 119.332 349 174.45 349C186.698 349 198.547 347.584 210.001 344.755L210.004 344.754C221.636 341.92 231.18 338.387 238.661 334.173ZM519.321 104.003C519.479 88.806 533.779 81.2076 562.222 81.2076C575.97 81.2076 586.478 83.4238 593.747 87.8562C601.173 92.1303 604.887 97.829 604.887 104.953V113.263H716.525V104.953C716.525 34.9842 665.091 0 562.222 0C511.657 0 473.259 9.26052 447.028 27.7815C420.798 46.4609 407.682 72.1845 407.682 104.953C407.998 177.612 462.435 213.942 570.992 213.942C604.966 213.942 621.953 223.044 621.953 241.248C621.953 259.611 603.702 268.792 567.2 268.792C530.54 268.951 512.21 259.453 512.21 240.299V225.102H400.572V240.299C400.572 276.232 414.477 303.539 442.288 322.218C470.257 340.739 511.815 350 566.963 350C621.952 350 663.511 340.265 691.638 320.794C719.607 301.64 733.591 274.808 733.591 240.299C733.591 204.523 721.108 176.9 696.141 157.429C670.859 138.116 629.458 128.46 571.94 128.46C536.861 128.302 519.321 120.149 519.321 104.003ZM695.531 158.221C670.515 139.114 629.392 129.46 571.94 129.46H571.936C554.35 129.381 541.022 127.302 532.054 123.134C527.558 121.044 524.116 118.41 521.799 115.199C519.474 111.978 518.321 108.232 518.321 104.003V103.992C518.362 100.031 519.327 96.52 521.247 93.4942C523.164 90.4717 525.998 87.988 529.695 86.0233C537.062 82.1094 547.944 80.2076 562.222 80.2076C576.045 80.2076 586.763 82.4303 594.256 86.9958C601.912 91.405 605.887 97.3968 605.887 104.953V112.263H715.525V104.953C715.525 70.2512 702.793 44.3453 677.387 27.065C651.912 9.73775 613.575 1 562.222 1C511.756 1 473.599 10.2464 447.608 28.5961C421.648 47.0831 408.683 72.4989 408.682 104.948C408.839 140.988 422.394 167.905 449.302 185.863C476.28 203.867 516.794 212.942 570.992 212.942C588.036 212.942 600.974 215.219 609.685 219.887C614.055 222.229 617.384 225.184 619.617 228.773C621.851 232.365 622.953 236.536 622.953 241.248C622.953 246.013 621.766 250.226 619.364 253.851C616.966 257.47 613.396 260.444 608.714 262.8C599.379 267.496 585.504 269.792 567.204 269.792C548.82 269.872 534.878 267.536 525.497 262.676C520.792 260.238 517.209 257.151 514.805 253.393C512.398 249.63 511.21 245.253 511.21 240.299V226.102H401.572V240.299C401.572 275.926 415.333 302.908 442.842 321.386C470.572 339.748 511.898 349 566.963 349C621.862 349 663.182 339.276 691.069 319.972L691.073 319.969C718.763 301.005 732.591 274.485 732.591 240.299C732.591 204.788 720.218 177.476 695.531 158.221ZM1003.09 108.039C1007.35 112.788 1010.59 117.933 1012.81 123.474C1015.81 130.914 1017.31 136.771 1017.31 141.045H1128C1128 140.711 1128 140.378 1128 140.045C1127.75 98.2417 1111.79 64.5406 1080.12 38.9417C1048.04 12.9806 1005.93 0 953.787 0C898.165 0 854.395 15.2759 822.475 45.8277C790.556 76.3795 774.596 119.437 774.596 175C774.596 230.405 790.556 273.383 822.475 303.935C854.553 334.645 898.323 350 953.787 350C1005.93 350 1048.04 337.019 1080.12 311.058C1111.79 285.46 1127.75 251.838 1128 210.193C1128 209.86 1128 209.527 1128 209.193H1017.31L1016.84 213.942C1016.05 222.806 1011.46 231.988 1003.09 241.486C998.664 246.71 992.106 250.984 983.415 254.308C974.882 257.632 965.006 259.294 953.787 259.294C908.752 259.294 886.235 231.196 886.235 175C886.235 118.962 908.752 90.943 953.787 90.943C964.69 90.943 974.487 92.6052 983.178 95.9294C991.869 99.2537 998.506 103.29 1003.09 108.039ZM983.777 255.24C975.106 258.618 965.103 260.294 953.787 260.294C931.049 260.294 913.838 253.19 902.343 238.846C890.881 224.544 885.235 203.205 885.235 175C885.235 146.873 890.882 125.593 902.343 111.331C913.839 97.0267 931.05 89.943 953.787 89.943C964.792 89.943 974.712 91.6207 983.535 94.9954C992.311 98.3521 999.091 102.457 1003.81 107.345L1003.82 107.358L1003.83 107.371C1008.17 112.2 1011.47 117.443 1013.73 123.099C1016.53 130.029 1018.07 135.693 1018.28 140.045H1127C1126.75 98.5341 1110.92 65.1222 1079.49 39.7193C1047.64 13.9368 1005.76 1 953.787 1C898.353 1 854.855 16.2195 823.167 46.5501C791.493 76.8672 775.596 119.635 775.596 175C775.596 230.206 791.492 272.895 823.167 303.213C855.014 333.703 898.513 349 953.787 349C1005.76 349 1047.64 336.064 1079.49 310.281C1110.92 284.878 1126.75 251.544 1127 210.193H1018.21L1017.83 214.03C1017.83 214.033 1017.83 214.035 1017.83 214.038C1017.01 223.183 1012.3 232.553 1003.84 242.14C999.28 247.526 992.564 251.878 983.777 255.24Z" fill="white"/>
</svg>
