<svg display="none">
  <defs>
    <symbol viewBox="0 0 32 32" id="phone">
      <path d="M10 4C9.47656 4 8.94141 4.18359 8.5625 4.5625C8.18359 4.94141 8 5.47656 8 6V26C8 26.5234 8.18359 27.0586 8.5625 27.4375C8.94141 27.8164 9.47656 28 10 28H22C22.5234 28 23.0586 27.8164 23.4375 27.4375C23.8164 27.0586 24 26.5234 24 26V6C24 5.47656 23.8164 4.94141 23.4375 4.5625C23.0586 4.18359 22.5234 4 22 4H10ZM10 6H22V26H10V6ZM14 23V25H18V23H14Z" fill="black"/>
    </symbol>

    <symbol viewBox="0 0 32 32" id="envelope">
      <path d="M3 8V26H29V8H3ZM7.3125 10H24.6875L16 15.7812L7.3125 10ZM5 10.875L15.4375 17.8438L16 18.1875L16.5625 17.8438L27 10.875V24H5V10.875Z" fill="black"/>
    </symbol>

    <symbol viewBox="0 0 32 32" id="instagram">
      <path d="M11.4688 5C7.91797 5 5 7.91406 5 11.4688V20.5312C5 24.082 7.91406 27 11.4688 27H20.5312C24.082 27 27 24.0859 27 20.5312V11.4688C27 7.91797 24.0859 5 20.5312 5H11.4688ZM11.4688 7H20.5312C23.0039 7 25 8.99609 25 11.4688V20.5312C25 23.0039 23.0039 25 20.5312 25H11.4688C8.99609 25 7 23.0039 7 20.5312V11.4688C7 8.99609 8.99609 7 11.4688 7ZM21.9062 9.1875C21.4023 9.1875 21 9.58984 21 10.0938C21 10.5977 21.4023 11 21.9062 11C22.4102 11 22.8125 10.5977 22.8125 10.0938C22.8125 9.58984 22.4102 9.1875 21.9062 9.1875ZM16 10C12.6992 10 10 12.6992 10 16C10 19.3008 12.6992 22 16 22C19.3008 22 22 19.3008 22 16C22 12.6992 19.3008 10 16 10ZM16 12C18.2227 12 20 13.7773 20 16C20 18.2227 18.2227 20 16 20C13.7773 20 12 18.2227 12 16C12 13.7773 13.7773 12 16 12Z" fill="black"/>
    </symbol>

    <symbol class="icon_symbol" viewBox="0 0 32 32" id="air-conditioner">
      <path d="M5 5C3.355 5 2 6.355 2 8v5.5c0 .523.148.918.25 1.219l.063.125 1.156 2.437c.011.028.05.035.062.063C4.02 18.383 5.082 19 6.187 19H9v-2H6.187c-.464 0-.742-.191-.875-.5v-.031L4.595 15h22.812l-.718 1.469v.031c-.133.309-.41.5-.875.5H23v2h2.813c1.105 0 2.168-.617 2.656-1.656h.031a.335.335 0 0 0 .031-.063l1.157-2.437.062-.125c.102-.301.25-.696.25-1.219V8c0-1.645-1.355-3-3-3H5zm0 2h22c.555 0 1 .445 1 1v5H4V8c0-.555.445-1 1-1zm7 10c-.55 0-1 .45-1 1s.45 1 1 1 1-.45 1-1-.45-1-1-1zm4 0c-.55 0-1 .45-1 1s.45 1 1 1 1-.45 1-1-.45-1-1-1zm4 0c-.55 0-1 .45-1 1s.45 1 1 1 1-.45 1-1-.45-1-1-1zm-9 3c-.55 0-1 .45-1 1s.45 1 1 1 1-.45 1-1-.45-1-1-1zm5 0c-.55 0-1 .45-1 1s.45 1 1 1 1-.45 1-1-.45-1-1-1zm5 0c-.55 0-1 .45-1 1s.45 1 1 1 1-.45 1-1-.45-1-1-1zm-11 3c-.55 0-1 .45-1 1s.45 1 1 1 1-.45 1-1-.45-1-1-1zm6 0c-.55 0-1 .45-1 1s.45 1 1 1 1-.45 1-1-.45-1-1-1zm6 0c-.55 0-1 .45-1 1s.45 1 1 1 1-.45 1-1-.45-1-1-1zM8 26c-.55 0-1 .45-1 1s.45 1 1 1 1-.45 1-1-.45-1-1-1zm8 0c-.55 0-1 .45-1 1s.45 1 1 1 1-.45 1-1-.45-1-1-1zm8 0c-.55 0-1 .45-1 1s.45 1 1 1 1-.45 1-1-.45-1-1-1z"
        fill="#000"></path>
    </symbol>

    <symbol class="icon_symbol" viewBox="0 0 32 32" id="cooker-hood">
      <path d="M13 5v5.531L6.625 16H6c-1.645 0-3 1.355-3 3v3h26v-3c0-1.645-1.355-3-3-3h-.625L19 10.531V5h-2v5h-2V5h-2zm1.375 7h3.25l4.688 4H9.688l4.687-4zM6 18h20c.566 0 1 .434 1 1v1H5v-1c0-.566.434-1 1-1zm4 5v4h2v-4h-2zm5 0v4h2v-4h-2zm5 0v4h2v-4h-2z" fill="#000"></path>
    </symbol>

    <symbol class="icon_symbol" viewBox="0 0 32 32" id="minus">
      <path d="M16 3C8.832 3 3 8.832 3 16s5.832 13 13 13 13-5.832 13-13S23.168 3 16 3zm0 2c6.086 0 11 4.914 11 11s-4.914 11-11 11S5 22.086 5 16 9.914 5 16 5zm-6 10v2h12v-2H10z" fill="#000"></path>
    </symbol>

    <symbol class="icon_symbol" viewBox="0 0 32 32" id="plus">
      <path d="M16 3C8.832 3 3 8.832 3 16s5.832 13 13 13 13-5.832 13-13S23.168 3 16 3zm0 2c6.086 0 11 4.914 11 11s-4.914 11-11 11S5 22.086 5 16 9.914 5 16 5zm-1 5v5h-5v2h5v5h2v-5h5v-2h-5v-5h-2z" fill="#000"></path>
    </symbol>
    
    <symbol class="icon_symbol" viewBox="0 0 32 32" id="roofing">
      <path d="M16 8.031l-.531.313-13.5 8.406 1.062 1.688.969-.594V24h2v-7.406l10-6.188 10 6.188V24h2v-6.156l.969.593 1.062-1.687L26 14.25V9h-5v2.125l-4.469-2.781L16 8.03zM23 11h1v2l-1-.625V11z" fill="#000"></path>
    </symbol>
  </defs>
</svg>